<svg width="20" height="20" viewBox="0 0 20 20" fill="none" xmlns="http://www.w3.org/2000/svg">
<path d="M1.66699 9.16683C1.66699 10.0873 2.41318 10.8335 3.33366 10.8335C4.71437 10.8335 5.83366 9.71421 5.83366 8.3335V5.00016C5.83366 3.61945 4.71437 2.50016 3.33366 2.50016C2.41318 2.50016 1.66699 3.24636 1.66699 4.16683V9.16683Z" stroke="#4179F0" stroke-width="1.5" stroke-linecap="round" stroke-linejoin="round"/>
<path d="M12.8986 13.0784L12.6767 12.3617C12.4949 11.7744 12.4039 11.4807 12.4739 11.2488C12.5304 11.0612 12.6546 10.8995 12.8238 10.7931C13.033 10.6615 13.3494 10.6615 13.9823 10.6615H14.3189C16.4606 10.6615 17.5315 10.6615 18.0373 10.0276C18.0951 9.95512 18.1465 9.87808 18.191 9.79727C18.5801 9.0902 18.1377 8.13772 17.253 6.23274C16.4411 4.48459 16.0351 3.61051 15.2814 3.09603C15.2084 3.04622 15.1334 2.99924 15.0566 2.95521C14.263 2.50032 13.2798 2.50032 11.3133 2.50032H10.8868C8.50444 2.50032 7.31324 2.50032 6.57312 3.21743C5.83301 3.93454 5.83301 5.08871 5.83301 7.39705V8.20837C5.83301 9.42146 5.83301 10.028 6.04829 10.5832C6.26358 11.1383 6.6758 11.5948 7.50025 12.5077L10.9098 16.2832C10.9953 16.3779 11.038 16.4252 11.0757 16.458C11.4276 16.7643 11.9707 16.7298 12.2783 16.3817C12.3113 16.3444 12.3473 16.2921 12.4194 16.1874C12.532 16.0236 12.5884 15.9417 12.6375 15.8606C13.077 15.1344 13.21 14.2717 13.0087 13.4527C12.9862 13.3612 12.957 13.2669 12.8986 13.0784Z" stroke="#4179F0" stroke-width="1.5" stroke-linecap="round" stroke-linejoin="round"/>
</svg>
