<svg width="20" height="20" viewBox="0 0 20 20" fill="none" xmlns="http://www.w3.org/2000/svg">
<path d="M1.66699 10.0002C1.66699 9.07969 2.41318 8.3335 3.33366 8.3335C4.71437 8.3335 5.83366 9.45278 5.83366 10.8335V14.1668C5.83366 15.5475 4.71437 16.6668 3.33366 16.6668C2.41318 16.6668 1.66699 15.9206 1.66699 15.0002V10.0002Z" stroke="#4179F0" stroke-width="1.5" stroke-linecap="round" stroke-linejoin="round"/>
<path d="M12.8986 6.08855L12.6767 6.80529C12.4949 7.39259 12.4039 7.68624 12.4739 7.91816C12.5304 8.10579 12.6546 8.26752 12.8238 8.37393C13.033 8.50545 13.3494 8.50545 13.9823 8.50545H14.3189C16.4606 8.50545 17.5315 8.50545 18.0373 9.13942C18.0951 9.21187 18.1465 9.28891 18.191 9.36972C18.5801 10.0768 18.1377 11.0293 17.253 12.9343C16.4411 14.6824 16.0351 15.5565 15.2814 16.071C15.2084 16.1208 15.1334 16.1677 15.0566 16.2118C14.263 16.6667 13.2798 16.6667 11.3133 16.6667H10.8868C8.50444 16.6667 7.31324 16.6667 6.57312 15.9496C5.83301 15.2324 5.83301 14.0783 5.83301 11.7699V10.9586C5.83301 9.74553 5.83301 9.13899 6.04829 8.58383C6.26358 8.02867 6.6758 7.5722 7.50025 6.65926L10.9098 2.8838C10.9953 2.78911 11.038 2.74176 11.0757 2.70896C11.4276 2.40273 11.9707 2.4372 12.2783 2.78529C12.3113 2.82258 12.3473 2.87493 12.4194 2.97961C12.532 3.14337 12.5884 3.22525 12.6375 3.30638C13.077 4.03261 13.21 4.8953 13.0087 5.71429C12.9862 5.80577 12.957 5.90008 12.8986 6.08855Z" stroke="#4179F0" stroke-width="1.5" stroke-linecap="round" stroke-linejoin="round"/>
</svg>
