<svg width="32" height="32" viewBox="0 0 32 32" fill="none" xmlns="http://www.w3.org/2000/svg">
<path d="M10.6673 18H21.334M10.6673 11.3333H16.0007" stroke="black" stroke-width="1.5" stroke-linecap="round" stroke-linejoin="round"/>
<path d="M8.1311 25.3334C6.39762 25.1629 5.09902 24.6422 4.22811 23.7713C2.66602 22.2092 2.66602 19.695 2.66602 14.6667V14C2.66602 8.97173 2.66602 6.45757 4.22811 4.89547C5.79021 3.33337 8.30437 3.33337 13.3327 3.33337H18.666C23.6943 3.33337 26.2085 3.33337 27.7706 4.89547C29.3327 6.45757 29.3327 8.97173 29.3327 14V14.6667C29.3327 19.695 29.3327 22.2092 27.7706 23.7713C26.2085 25.3334 23.6943 25.3334 18.666 25.3334C17.9187 25.35 17.3235 25.4069 16.7388 25.5401C15.141 25.9079 13.6614 26.7255 12.1992 27.4385C10.1157 28.4545 9.07401 28.9624 8.42028 28.4869C7.16961 27.5554 8.39207 24.6692 8.66602 23.3334" stroke="black" stroke-width="1.5" stroke-linecap="round"/>
</svg>
