<svg width="38" height="38" viewBox="0 0 38 38" fill="none" xmlns="http://www.w3.org/2000/svg">
<path d="M18.894 6.10125C22.2869 6.10125 25.5408 7.44907 27.94 9.8482C30.3391 12.2473 31.6869 15.5013 31.6869 18.8941C31.6869 22.287 30.3391 25.541 27.94 27.9401C25.5408 30.3392 22.2869 31.687 18.894 31.687C15.5011 31.687 12.2472 30.3392 9.84808 27.9401C7.44895 25.541 6.10113 22.287 6.10113 18.8941C6.10113 15.5013 7.44895 12.2473 9.84808 9.8482C12.2472 7.44907 15.5011 6.10125 18.894 6.10125ZM18.894 34.6392C23.0699 34.6392 27.0747 32.9804 30.0275 30.0276C32.9803 27.0748 34.6391 23.07 34.6391 18.8941C34.6391 14.7183 32.9803 10.7135 30.0275 7.76068C27.0747 4.8079 23.0699 3.14905 18.894 3.14905C14.7182 3.14905 10.7133 4.8079 7.76056 7.76068C4.80778 10.7135 3.14893 14.7183 3.14893 18.8941C3.14893 23.07 4.80778 27.0748 7.76056 30.0276C10.7133 32.9804 14.7182 34.6392 18.894 34.6392ZM18.894 11.0216C18.076 11.0216 17.4179 11.6797 17.4179 12.4977V19.3862C17.4179 20.2042 18.076 20.8623 18.894 20.8623C19.712 20.8623 20.3701 20.2042 20.3701 19.3862V12.4977C20.3701 11.6797 19.712 11.0216 18.894 11.0216ZM20.8622 24.7986C20.8622 24.2766 20.6548 23.776 20.2857 23.4069C19.9166 23.0378 19.416 22.8304 18.894 22.8304C18.372 22.8304 17.8714 23.0378 17.5023 23.4069C17.1332 23.776 16.9259 24.2766 16.9259 24.7986C16.9259 25.3205 17.1332 25.8211 17.5023 26.1902C17.8714 26.5593 18.372 26.7667 18.894 26.7667C19.416 26.7667 19.9166 26.5593 20.2857 26.1902C20.6548 25.8211 20.8622 25.3205 20.8622 24.7986Z" fill="#F11B1B"/>
</svg>
