<svg width="32" height="32" viewBox="0 0 32 32" fill="none" xmlns="http://www.w3.org/2000/svg">
<path d="M3.33398 16C3.33398 10.0289 3.33398 7.04335 5.18897 5.18836C7.04397 3.33337 10.0295 3.33337 16.0007 3.33337C21.9718 3.33337 24.9573 3.33337 26.8123 5.18836C28.6673 7.04335 28.6673 10.0289 28.6673 16C28.6673 21.9712 28.6673 24.9567 26.8123 26.8117C24.9573 28.6667 21.9718 28.6667 16.0007 28.6667C10.0295 28.6667 7.04397 28.6667 5.18897 26.8117C3.33398 24.9567 3.33398 21.9712 3.33398 16Z" stroke="black" stroke-width="1.5" stroke-linejoin="round"/>
<path d="M13.334 20.6666C13.334 21.7712 12.4386 22.6666 11.334 22.6666C10.2294 22.6666 9.33398 21.7712 9.33398 20.6666C9.33398 19.5621 10.2294 18.6666 11.334 18.6666C12.4386 18.6666 13.334 19.5621 13.334 20.6666Z" stroke="black" stroke-width="1.5"/>
<path d="M22.666 11.3334C22.666 10.2288 21.7706 9.33337 20.666 9.33337C19.5614 9.33337 18.666 10.2288 18.666 11.3334C18.666 12.4379 19.5614 13.3334 20.666 13.3334C21.7706 13.3334 22.666 12.4379 22.666 11.3334Z" stroke="black" stroke-width="1.5"/>
<path d="M11.334 18.6667V9.33337" stroke="black" stroke-width="1.5" stroke-linecap="round"/>
<path d="M20.666 13.3333V22.6666" stroke="black" stroke-width="1.5" stroke-linecap="round"/>
</svg>
